<svg width="368" height="408" viewBox="0 0 368 408" fill="none" xmlns="http://www.w3.org/2000/svg">
<g opacity="0.3">
<path fill-rule="evenodd" clip-rule="evenodd" d="M316.491 257.73L314.833 269.747C312.006 290.231 296.262 342.021 279.328 339.684C264.275 337.607 246.505 330.707 246.065 316.445C245.642 302.767 253.452 285.63 255.552 270.41C258.206 251.18 259.286 232.637 251.076 217.007C245.994 207.33 233.81 193.933 219.438 191.95L210.759 190.752C191.577 188.104 168.692 207.196 157.951 217.325C145.433 229.127 127.904 257.555 112.037 255.366C103.187 254.144 79.3858 240.541 81.0291 228.634C82.2988 219.434 100.099 193.72 105.239 187.197C115.974 173.574 123.915 165.189 136.17 153.841C155.158 136.258 189.492 118.423 225.498 123.392C289.954 132.288 325.441 192.887 316.491 257.73Z" fill="#E11D23"/>
<path fill-rule="evenodd" clip-rule="evenodd" d="M246.77 348.796C262.679 350.992 272.044 352.083 288.188 352.175C296.676 352.223 312.202 350.343 318.552 351.219C328.717 352.622 338.029 362.902 336.667 372.768L336.022 377.442C333.723 394.099 313.355 393.997 297.94 394.252C220.74 395.531 141.276 370.374 91.2149 327.328C71.3047 310.206 57.8669 294.826 44.6784 272.306C36.6951 258.674 19.4293 216.493 22.1613 196.698C23.6581 185.852 34.7309 178.023 45.6216 179.526C68.0444 182.62 60.3706 204.723 74.5292 237.737C82.926 257.318 96.5419 275.793 112.305 289.831C143.28 317.416 190.082 340.972 246.771 348.796L246.77 348.796Z" fill="#F7AF28"/>
<path fill-rule="evenodd" clip-rule="evenodd" d="M218.133 97.8797C216.778 107.698 210.72 106.508 197.944 108.322C189.851 109.471 182.997 110.678 175.554 112.701C165.497 115.432 151.029 122.851 145.208 123.2C127.477 124.262 145.623 100.737 147.826 84.7756C149.443 73.0591 145.228 65.5917 135.995 62.0518C138.749 69.6078 138.147 76.0348 137.052 83.9687C135.913 92.2209 127.652 101.041 119.209 99.8756C114.876 99.2776 113.849 89.1072 112.338 85.3522C108.39 75.5368 102.384 66.1074 95.9597 57.7035C94.8179 56.2095 83.6907 46.6717 83.6909 46.6701C84.2244 42.8047 94.89 30.3216 97.655 28.0103C117.781 11.1855 145.391 8.43528 170.57 20.3203C185.83 27.5225 196.355 38.934 204.187 51.6507C208.472 58.6065 219.489 88.0556 218.133 97.8808L218.133 97.8797Z" fill="#F7AF28"/>
<path fill-rule="evenodd" clip-rule="evenodd" d="M395.004 171.957C392.925 187.022 378.478 186.366 364.65 186.342C348.854 186.316 322.368 205.309 325.017 186.11L325.754 180.769C330.774 144.398 404.252 104.948 395.004 171.957L395.004 171.957Z" fill="#F9AF28"/>
</g>
</svg>
