<svg width="312" height="400" viewBox="0 0 312 400" fill="none" xmlns="http://www.w3.org/2000/svg">
<g opacity="0.3">
<path fill-rule="evenodd" clip-rule="evenodd" d="M12.4494 258.383L14.9417 269.286C19.1902 287.87 37.8258 334.164 53.1898 330.652C66.8472 327.53 82.6104 319.76 81.8648 306.626C81.15 294.031 72.595 278.922 69.4385 265.114C65.4502 247.667 62.9635 230.724 69.2422 215.707C73.1291 206.409 83.2391 193.123 96.2784 190.142L104.153 188.342C121.556 184.364 144.113 200.052 154.795 208.488C167.242 218.318 185.634 243.013 200.03 239.722C208.059 237.886 228.821 223.473 226.352 212.671C224.443 204.324 206.022 182.143 200.775 176.567C189.818 164.922 181.848 157.862 169.678 148.428C150.821 133.811 117.851 120.2 85.1833 127.668C26.7038 141.036 -0.999242 199.553 12.4494 258.383Z" fill="#E11D23"/>
<path fill-rule="evenodd" clip-rule="evenodd" d="M83.8215 336.393C69.3881 339.693 60.8755 341.45 46.0557 342.836C38.2644 343.565 23.8536 343.09 18.0928 344.407C8.87058 346.516 1.14744 356.708 3.19369 365.659L4.16301 369.899C7.61765 385.012 26.3157 383.275 40.4937 382.266C111.497 377.214 182.448 347.702 224.952 304.131C241.857 286.8 252.958 271.591 263.254 249.845C269.486 236.682 281.941 196.55 277.836 178.59C275.586 168.751 264.786 162.453 254.905 164.712C234.561 169.362 243.392 189.042 233.051 220.505C226.919 239.165 215.904 257.231 202.559 271.394C176.336 299.227 135.254 324.635 83.8214 336.393L83.8215 336.393Z" fill="#F7AF28"/>
<path fill-rule="evenodd" clip-rule="evenodd" d="M89.8908 103.644C91.9271 112.551 97.3946 110.97 109.275 111.606C116.8 112.008 123.192 112.564 130.191 113.821C139.647 115.518 153.533 121.165 158.908 121.016C175.277 120.562 156.714 100.42 153.404 85.9385C150.974 75.3085 154.242 68.1105 162.437 64.1148C160.517 71.2764 161.588 77.1304 163.234 84.3285C164.945 91.8155 173.244 99.2495 180.904 97.4984C184.835 96.5996 184.958 87.1763 186.042 83.6059C188.877 74.273 193.633 65.1286 198.855 56.8924C199.783 55.4282 209.233 45.7712 209.232 45.7698C208.431 42.2628 197.629 31.6586 194.903 29.7589C175.062 15.9301 149.483 15.6311 127.317 28.5771C113.883 36.4223 105.138 47.7515 98.9701 60.0622C95.5963 66.7959 87.8528 94.7307 89.8906 103.645L89.8908 103.644Z" fill="#F7AF28"/>
<path fill-rule="evenodd" clip-rule="evenodd" d="M-66.5717 185.938C-63.4472 199.605 -50.2316 197.837 -37.5339 196.701C-23.0292 195.402 2.82775 210.709 -1.15413 193.291L-2.26187 188.445C-9.80524 155.447 -80.469 125.142 -66.5713 185.937L-66.5717 185.938Z" fill="#F9AF28"/>
</g>
</svg>
