<svg width="26" height="26" viewBox="0 0 26 26" fill="none" xmlns="http://www.w3.org/2000/svg">
<path d="M23.7982 19.8549C23.7982 20.2449 23.7116 20.6457 23.5274 21.0357C23.3432 21.4257 23.1049 21.7941 22.7907 22.1407C22.2599 22.7257 21.6749 23.1482 21.0141 23.4191C20.3641 23.6899 19.6599 23.8307 18.9016 23.8307C17.7966 23.8307 16.6157 23.5707 15.3699 23.0399C14.1241 22.5091 12.8782 21.7941 11.6432 20.8949C10.3845 19.9742 9.19673 18.9602 8.0899 17.8616C6.99439 16.7587 5.984 15.5745 5.0674 14.3191C4.17906 13.0841 3.46406 11.8491 2.94406 10.6249C2.42406 9.3899 2.16406 8.20906 2.16406 7.0824C2.16406 6.34573 2.29406 5.64156 2.55406 4.99156C2.81406 4.33073 3.22573 3.72406 3.7999 3.1824C4.49323 2.4999 5.25156 2.16406 6.05323 2.16406C6.35656 2.16406 6.6599 2.22906 6.93073 2.35906C7.2124 2.48906 7.46156 2.68406 7.65656 2.96573L10.1699 6.50823C10.3649 6.77906 10.5057 7.02823 10.6032 7.26656C10.7007 7.49406 10.7549 7.72156 10.7549 7.9274C10.7549 8.1874 10.6791 8.4474 10.5274 8.69656C10.3866 8.94573 10.1807 9.20573 9.92073 9.46573L9.09739 10.3216C8.97823 10.4407 8.92406 10.5816 8.92406 10.7549C8.92406 10.8416 8.9349 10.9174 8.95656 11.0041C8.98906 11.0907 9.02156 11.1557 9.04323 11.2207C9.23823 11.5782 9.57406 12.0441 10.0507 12.6074C10.5382 13.1707 11.0582 13.7449 11.6216 14.3191C12.2066 14.8932 12.7699 15.4241 13.3441 15.9116C13.9074 16.3882 14.3732 16.7132 14.7416 16.9082C14.7957 16.9299 14.8607 16.9624 14.9366 16.9949C15.0232 17.0274 15.1099 17.0382 15.2074 17.0382C15.3916 17.0382 15.5324 16.9732 15.6516 16.8541L16.4749 16.0416C16.7457 15.7707 17.0057 15.5649 17.2549 15.4349C17.5041 15.2832 17.7532 15.2074 18.0241 15.2074C18.2299 15.2074 18.4466 15.2507 18.6849 15.3482C18.9232 15.4457 19.1724 15.5866 19.4432 15.7707L23.0291 18.3166C23.3107 18.5116 23.5057 18.7391 23.6249 19.0099C23.7332 19.2807 23.7982 19.5516 23.7982 19.8549Z" stroke="white" stroke-width="1.5" stroke-miterlimit="10"/>
</svg>
