<svg width="24" height="24" viewBox="0 0 24 24" fill="none" xmlns="http://www.w3.org/2000/svg">
<path d="M21 17.7191C21 18.0436 20.9279 18.3771 20.7747 18.7016C20.6214 19.026 20.4231 19.3325 20.1617 19.6209C19.7201 20.1077 19.2333 20.4592 18.6835 20.6845C18.1427 20.9099 17.5568 21.027 16.9259 21.027C16.0065 21.027 15.024 20.8107 13.9875 20.3691C12.9509 19.9274 11.9144 19.3325 10.8868 18.5844C9.83956 17.8183 8.8513 16.9747 7.9304 16.0606C7.01892 15.143 6.17826 14.1577 5.41562 13.1132C4.67651 12.0856 4.08162 11.0581 3.64897 10.0396C3.21632 9.01202 3 8.02954 3 7.09214C3 6.47922 3.10816 5.89334 3.32449 5.35253C3.54081 4.8027 3.88332 4.29795 4.36104 3.84727C4.93791 3.27942 5.56885 3 6.23585 3C6.48823 3 6.74061 3.05408 6.96595 3.16224C7.2003 3.27041 7.40761 3.43265 7.56986 3.667L9.66099 6.61442C9.82324 6.83976 9.94041 7.04707 10.0215 7.24537C10.1027 7.43465 10.1477 7.62394 10.1477 7.79519C10.1477 8.01152 10.0846 8.22784 9.95844 8.43515C9.84126 8.64246 9.67001 8.85879 9.45368 9.07511L8.76865 9.78718C8.6695 9.88633 8.62444 10.0035 8.62444 10.1477C8.62444 10.2198 8.63345 10.2829 8.65148 10.355C8.67852 10.4271 8.70556 10.4812 8.72359 10.5353C8.88583 10.8327 9.16525 11.2203 9.56184 11.689C9.96745 12.1577 10.4001 12.6355 10.8688 13.1132C11.3555 13.5909 11.8242 14.0325 12.302 14.4382C12.7707 14.8348 13.1582 15.1052 13.4647 15.2674C13.5098 15.2854 13.5638 15.3125 13.6269 15.3395C13.699 15.3666 13.7712 15.3756 13.8523 15.3756C14.0055 15.3756 14.1227 15.3215 14.2218 15.2223L14.9069 14.5463C15.1322 14.321 15.3485 14.1497 15.5558 14.0416C15.7631 13.9154 15.9705 13.8523 16.1958 13.8523C16.3671 13.8523 16.5473 13.8883 16.7456 13.9695C16.9439 14.0506 17.1512 14.1678 17.3766 14.321L20.36 16.4392C20.5944 16.6014 20.7566 16.7907 20.8558 17.016C20.9459 17.2414 21 17.4667 21 17.7191Z" stroke="#E31C23" stroke-miterlimit="10"/>
</svg>
