<svg width="70" height="82" viewBox="0 0 70 82" fill="none" xmlns="http://www.w3.org/2000/svg">
<g filter="url(#filter0_d_2359_3705)">
<path d="M35.6306 57.2142L35.6306 57.2142C35.2935 57.595 34.707 57.5955 34.3694 57.2142L33.9997 57.5415L34.3694 57.2142C34.0906 56.8994 30.6094 52.938 27.2007 47.7644C25.4964 45.1776 23.8168 42.2975 22.5647 39.4262C21.3099 36.5487 20.5 33.7148 20.5 31.2107C20.5 23.0931 27.0117 16.5 35 16.5C42.9883 16.5 49.4998 23.0931 49.5 31.2107C49.5 33.7148 48.6901 36.5487 47.4353 39.4262C46.1832 42.2975 44.5036 45.1776 42.7993 47.7644C39.3906 52.938 35.9094 56.8994 35.6306 57.2142Z" fill="white" stroke="#E31E24"/>
</g>
<path fill-rule="evenodd" clip-rule="evenodd" d="M28.7639 32.7399L28.8203 33.3792C28.9165 34.4689 29.6165 37.246 30.523 37.166C31.3287 37.0949 32.2917 36.776 32.3528 36.0235C32.4115 35.3019 32.0416 34.3762 31.9702 33.5666C31.8799 32.5437 31.8716 31.5611 32.3494 30.7562C32.6451 30.2579 33.3283 29.5814 34.0977 29.5135L34.5622 29.4725C35.589 29.3819 36.7552 30.4495 37.2995 31.0124C37.9337 31.6682 38.7905 33.2155 39.6398 33.1405C40.1136 33.0988 41.4149 32.4411 41.359 31.8077C41.3158 31.3183 40.4375 29.9138 40.1815 29.5559C39.6468 28.8085 39.2468 28.345 38.6253 27.7138C37.6623 26.7359 35.8841 25.7052 33.9568 25.8752C30.5065 26.1796 28.4596 29.2905 28.7639 32.7399Z" fill="#E11D23"/>
<path fill-rule="evenodd" clip-rule="evenodd" d="M32.2351 37.7325C31.3835 37.8076 30.8828 37.8412 30.0242 37.8045C29.5728 37.7853 28.7524 37.646 28.4125 37.676C27.8684 37.724 27.3461 38.2433 27.3924 38.7681L27.4144 39.0167C27.4925 39.9028 28.5757 39.9498 29.3945 40.0029C33.4954 40.2689 37.7865 39.1439 40.5618 36.9979C41.6656 36.1444 42.4207 35.3662 43.1814 34.2101C43.6419 33.5103 44.6713 31.3258 44.5784 30.2728C44.5275 29.6958 43.9596 29.2536 43.3766 29.3051C42.1763 29.4109 42.5259 30.5986 41.6858 32.3067C41.1876 33.3198 40.4149 34.2611 39.5397 34.9623C37.82 36.3403 35.2696 37.4648 32.2351 37.7325L32.2351 37.7325Z" fill="#F9B029"/>
<path fill-rule="evenodd" clip-rule="evenodd" d="M34.4216 24.5496C34.4677 25.0719 34.7929 25.0245 35.4673 25.1533C35.8946 25.2348 36.2557 25.3162 36.6461 25.4422C37.1735 25.6123 37.9231 26.0416 38.2317 26.075C39.1715 26.1767 38.269 24.887 38.1941 24.0379C38.1391 23.4146 38.3829 23.0308 38.8832 22.8675C38.7167 23.2597 38.7318 23.6009 38.769 24.0229C38.8077 24.4619 39.2236 24.9492 39.6755 24.9093C39.9075 24.8889 39.989 24.3541 40.0792 24.1596C40.3151 23.6511 40.6593 23.1682 41.0231 22.7407C41.0877 22.6647 41.7045 22.1893 41.7045 22.1892C41.6864 21.9836 41.1524 21.2965 41.0115 21.1673C39.986 20.2265 38.5254 20.0102 37.1553 20.5735C36.325 20.9148 35.7353 21.4908 35.2853 22.1426C35.0391 22.4992 34.3755 24.027 34.4216 24.5496L34.4216 24.5496Z" fill="#F9B029"/>
<path fill-rule="evenodd" clip-rule="evenodd" d="M24.8207 28.0055C24.8913 28.8069 25.6612 28.8093 26.3964 28.8436C27.2362 28.8828 28.5941 29.9545 28.504 28.9332L28.479 28.6491C28.3083 26.7143 24.5062 24.4409 24.8207 28.0055L24.8207 28.0055Z" fill="#F9B029"/>
<defs>
<filter id="filter0_d_2359_3705" x="0" y="0" width="70" height="82" filterUnits="userSpaceOnUse" color-interpolation-filters="sRGB">
<feFlood flood-opacity="0" result="BackgroundImageFix"/>
<feColorMatrix in="SourceAlpha" type="matrix" values="0 0 0 0 0 0 0 0 0 0 0 0 0 0 0 0 0 0 127 0" result="hardAlpha"/>
<feOffset dy="4"/>
<feGaussianBlur stdDeviation="10"/>
<feColorMatrix type="matrix" values="0 0 0 0 0.952941 0 0 0 0 0.784314 0 0 0 0 0.196078 0 0 0 0.2 0"/>
<feBlend mode="normal" in2="BackgroundImageFix" result="effect1_dropShadow_2359_3705"/>
<feBlend mode="normal" in="SourceGraphic" in2="effect1_dropShadow_2359_3705" result="shape"/>
</filter>
</defs>
</svg>
