<svg width="32" height="32" viewBox="0 0 32 32" fill="none" xmlns="http://www.w3.org/2000/svg">
<path d="M16 2C13.0837 2.00346 10.2878 3.1635 8.22565 5.22565C6.1635 7.2878 5.00346 10.0837 5 13C5 22.4121 15 29.5215 15.4258 29.8193C15.5942 29.9369 15.7946 30 16 30C16.2054 30 16.4058 29.9369 16.5742 29.8193C17 29.5215 27 22.4121 27 13C26.9965 10.0837 25.8365 7.2878 23.7744 5.22565C21.7122 3.1635 18.9163 2.00346 16 2V2ZM16.0007 9.00036C16.7919 9.00036 17.5652 9.23496 18.223 9.67448C18.8808 10.114 19.3935 10.7387 19.6963 11.4696C19.999 12.2005 20.0782 13.0048 19.9239 13.7807C19.7695 14.5566 19.3886 15.2694 18.8292 15.8288C18.2697 16.3882 17.557 16.7692 16.7811 16.9235C16.0052 17.0778 15.2009 16.9986 14.47 16.6959C13.7391 16.3931 13.1144 15.8804 12.6749 15.2226C12.2353 14.5648 12.0007 13.7915 12.0007 13.0004C12.0007 12.4751 12.1042 11.9549 12.3052 11.4696C12.5062 10.9843 12.8008 10.5433 13.1723 10.1719C13.5437 9.80046 13.9847 9.50583 14.47 9.30481C14.9553 9.1038 15.4754 9.00035 16.0007 9.00036V9.00036Z" fill="#E11D23"/>
</svg>
