<svg width="14" height="15" viewBox="0 0 14 15" fill="none" xmlns="http://www.w3.org/2000/svg">
<path d="M8.20935 1.08313L9.44121 3.74466C9.60919 4.11515 10.0571 4.47053 10.4351 4.53858L12.6679 4.93932C14.0957 5.1964 14.4317 6.31544 13.4028 7.41937L11.667 9.29453C11.373 9.6121 11.212 10.2246 11.303 10.6631L11.7999 12.9844C12.1919 14.8217 11.289 15.5325 9.78417 14.5722L7.6914 13.2339C7.31344 12.9919 6.69051 12.9919 6.30556 13.2339L4.21279 14.5722C2.71495 15.5325 1.80505 14.8142 2.19701 12.9844L2.69395 10.6631C2.78494 10.2246 2.62396 9.6121 2.33 9.29453L0.594187 7.41937C-0.4277 6.31544 -0.0987362 5.1964 1.32911 4.93932L3.56186 4.53858C3.93282 4.47053 4.38077 4.11515 4.54875 3.74466L5.78061 1.08313C6.45254 -0.361045 7.54442 -0.361045 8.20935 1.08313Z" fill="#F7AF28"/>
</svg>
