<svg width="32" height="32" viewBox="0 0 32 32" fill="none" xmlns="http://www.w3.org/2000/svg">
<path d="M27.7465 19.8014L21.8917 17.2922C21.586 17.1606 21.2523 17.1077 20.9209 17.1381C20.5895 17.1686 20.271 17.2815 19.9944 17.4666L16.864 19.5532C14.9508 18.6227 13.4023 17.0811 12.4634 15.172L12.4636 15.1718L14.543 11.9945C14.724 11.7187 14.8338 11.4023 14.8626 11.0736C14.8914 10.745 14.8383 10.4143 14.708 10.1112L12.1965 4.25146C12.0256 3.85371 11.7304 3.52202 11.3551 3.30608C10.9799 3.09014 10.5448 3.00155 10.115 3.05359C8.42607 3.27074 6.87398 4.09533 5.74865 5.3733C4.62331 6.65128 4.00173 8.29523 4 9.99805C4 19.9233 12.0747 27.998 22 27.998C23.7028 27.9963 25.3468 27.3747 26.6248 26.2494C27.9028 25.124 28.7273 23.5719 28.9445 21.8829C28.9964 21.4531 28.9077 21.0181 28.6917 20.6429C28.4758 20.2676 28.1442 19.9724 27.7465 19.8014V19.8014Z" fill="#E11D23"/>
<path d="M19.6694 5.96549C21.1951 6.37571 22.5861 7.17964 23.7032 8.29673C24.8203 9.41383 25.6242 10.8049 26.0344 12.3305C26.1033 12.5862 26.2709 12.8041 26.5003 12.9365C26.7297 13.0688 27.0023 13.1047 27.2581 13.0363C27.514 12.9679 27.7323 12.8009 27.8651 12.5717C27.9979 12.3426 28.0344 12.0701 27.9666 11.8141C27.4651 9.94917 26.4823 8.24872 25.1168 6.88316C23.7512 5.51759 22.0508 4.53484 20.1858 4.03336C19.9298 3.96553 19.6573 4.00202 19.4282 4.13483C19.1991 4.26764 19.032 4.48593 18.9636 4.74179C18.8952 4.99765 18.9311 5.27019 19.0635 5.49961C19.1958 5.72902 19.4137 5.89657 19.6694 5.96549L19.6694 5.96549Z" fill="#E11D23"/>
<path d="M18.6304 9.82877C19.4779 10.0567 20.2506 10.5033 20.8712 11.1238C21.4918 11.7444 21.9384 12.5172 22.1663 13.3647C22.2352 13.6204 22.4027 13.8383 22.6321 13.9706C22.8616 14.103 23.1341 14.1389 23.39 14.0705C23.6458 14.0021 23.8641 13.835 23.9969 13.6059C24.1297 13.3768 24.1662 13.1043 24.0984 12.8483C23.7793 11.6614 23.1539 10.5793 22.2848 9.71023C21.4158 8.84118 20.3336 8.21577 19.1467 7.89664C18.8907 7.82881 18.6183 7.8653 18.3891 7.99811C18.16 8.13092 17.9929 8.34921 17.9245 8.60507C17.8562 8.86094 17.8921 9.13347 18.0244 9.36289C18.1567 9.5923 18.3747 9.75985 18.6304 9.82877L18.6304 9.82877Z" fill="#E11D23"/>
</svg>
