<svg width="32" height="32" viewBox="0 0 32 32" fill="none" xmlns="http://www.w3.org/2000/svg">
<path d="M29.4341 6.80899L25.1915 2.56631C25.0039 2.37878 24.7496 2.27343 24.4844 2.27344C24.2191 2.27344 23.9648 2.37881 23.7773 2.56635C23.5897 2.75389 23.4844 3.00825 23.4844 3.27346C23.4844 3.53868 23.5897 3.79303 23.7773 3.98056L28.0199 8.22317C28.1128 8.31604 28.223 8.3897 28.3443 8.43996C28.4656 8.49021 28.5957 8.51608 28.727 8.51609C28.8583 8.51609 28.9884 8.49023 29.1097 8.43997C29.231 8.38972 29.3413 8.31606 29.4341 8.22321C29.527 8.13035 29.6006 8.02011 29.6509 7.89879C29.7012 7.77746 29.727 7.64743 29.727 7.51611C29.727 7.38478 29.7012 7.25475 29.6509 7.13342C29.6007 7.01209 29.527 6.90185 29.4341 6.80899H29.4341Z" fill="#E11D23"/>
<path d="M8.22317 2.56632C8.03564 2.37879 7.78129 2.27344 7.51608 2.27344C7.25087 2.27344 6.99653 2.37879 6.80899 2.56632L2.56631 6.80899C2.37878 6.99653 2.27343 7.25089 2.27344 7.51611C2.27344 7.78132 2.37881 8.03568 2.56635 8.22321C2.75389 8.41074 3.00825 8.51609 3.27346 8.51609C3.53868 8.51608 3.79303 8.41072 3.98056 8.22318L8.22317 3.98056C8.4107 3.79301 8.51605 3.53866 8.51605 3.27344C8.51605 3.00822 8.4107 2.75386 8.22317 2.56632V2.56632Z" fill="#E11D23"/>
<path d="M27.9946 15.653C27.9921 15.5632 27.9889 15.4737 27.9844 15.3843C27.9842 15.3812 27.984 15.3782 27.9838 15.3751C27.8293 12.4126 26.5829 9.61236 24.4853 7.51471C22.3876 5.41706 19.5874 4.17071 16.6249 4.01617C16.6218 4.01599 16.6188 4.01575 16.6157 4.01562C16.5263 4.01111 16.4368 4.00793 16.347 4.00537C16.3336 4.00501 16.3202 4.00428 16.3068 4.00391C16.2047 4.00134 16.1025 4.00004 16 4C15.8975 4 15.7953 4.0013 15.6932 4.00391C15.6797 4.00427 15.6664 4.005 15.653 4.00537C15.5632 4.00793 15.4737 4.01111 15.3843 4.01562C15.3812 4.01575 15.3782 4.01599 15.3751 4.01617C12.4126 4.17073 9.61238 5.41709 7.51474 7.51474C5.41709 9.61238 4.17073 12.4126 4.01617 15.3751C4.01599 15.3782 4.01575 15.3812 4.01562 15.3843C4.01111 15.4737 4.00793 15.5632 4.00537 15.653C4.00501 15.6664 4.00428 15.6798 4.00391 15.6932C4.00134 15.7953 4.00004 15.8975 4 16C4 16.1025 4.0013 16.2047 4.00391 16.3068C4.00427 16.3203 4.005 16.3336 4.00537 16.347C4.00793 16.4368 4.01111 16.5263 4.01562 16.6157C4.01575 16.6188 4.01599 16.6218 4.01617 16.6249C4.1707 19.5874 5.41706 22.3876 7.51471 24.4853C9.61236 26.5829 12.4126 27.8293 15.3751 27.9838C15.3782 27.984 15.3812 27.9843 15.3843 27.9844C15.4737 27.9889 15.5632 27.9921 15.653 27.9946C15.6664 27.995 15.6798 27.9957 15.6932 27.9961C15.7953 27.9987 15.8975 28 16 28C16.1025 28 16.2047 27.9987 16.3068 27.9961C16.3203 27.9957 16.3336 27.995 16.347 27.9946C16.4368 27.9921 16.5263 27.9889 16.6157 27.9844C16.6188 27.9842 16.6218 27.984 16.6249 27.9838C19.5874 27.8293 22.3876 26.5829 24.4853 24.4853C26.5829 22.3876 27.8293 19.5874 27.9838 16.6249C27.984 16.6218 27.9843 16.6188 27.9844 16.6157C27.9889 16.5263 27.9921 16.4368 27.9946 16.347C27.995 16.3336 27.9957 16.3202 27.9961 16.3068C27.9987 16.2047 28 16.1025 28 16C28 15.8975 27.9987 15.7953 27.9961 15.6932C27.9957 15.6797 27.995 15.6664 27.9946 15.653ZM23 17H16C15.7348 17 15.4804 16.8946 15.2929 16.7071C15.1054 16.5196 15 16.2652 15 16V9C15 8.73478 15.1054 8.48043 15.2929 8.29289C15.4804 8.10536 15.7348 8 16 8C16.2652 8 16.5196 8.10536 16.7071 8.29289C16.8946 8.48043 17 8.73478 17 9V15H23C23.2652 15 23.5196 15.1054 23.7071 15.2929C23.8946 15.4804 24 15.7348 24 16C24 16.2652 23.8946 16.5196 23.7071 16.7071C23.5196 16.8946 23.2652 17 23 17Z" fill="#E11D23"/>
</svg>
