<svg width="1920" height="530" viewBox="0 0 1920 530" fill="none" xmlns="http://www.w3.org/2000/svg">
<path d="M498.814 472.826C253.779 444.43 58.84 478.407 -8 498.945V0C43.3331 19.8238 125.012 35.9418 159.434 41.5229C343.111 80.099 621.967 50.8994 738.436 31.4776C993.497 -9.24161 1238.06 26.5663 1328.47 49.5601C1415.49 71.5271 1552.55 87.2879 1610.2 92.4224C1723.69 109.032 1864.02 70.7681 1920 49.5601V435.321C1866.66 430.499 1704.27 463.673 1629.75 480.863C1450.48 517.295 1300.06 525.511 1247.26 525.064C1112.41 543.147 805.109 508.321 498.814 472.826Z" fill="#9EAB20"/>
</svg>
