<svg width="232" height="278" viewBox="0 0 232 278" fill="none" xmlns="http://www.w3.org/2000/svg">
<path d="M79.8497 231.592C74.5 232.404 69.5575 238.962 73.2403 243.901C76.108 248.018 83.0828 249.26 87.6173 247.626C91.9385 246.071 94.1142 239.837 91.6085 235.792C89.6468 232.633 83.4219 231.046 79.8497 231.592Z" fill="#BBD432"/>
<path d="M80.044 232.309C75.6792 233.085 71.1418 237.853 73.2383 242.471C75.2293 246.861 81.3811 248.105 85.6619 247.375C90.3016 246.588 92.9475 241.71 91.5063 237.296C90.1682 233.218 83.78 231.814 80.044 232.309C79.1036 232.429 78.6966 230.991 79.6469 230.869C84.146 230.27 90.9986 231.845 92.8123 236.562C94.7753 241.666 91.6995 247.507 86.4124 248.739C81.185 249.956 74.1398 248.07 71.7713 242.854C69.3628 237.53 74.5741 231.754 79.6342 230.861C80.5961 230.703 80.9932 232.144 80.044 232.309Z" fill="#221F1F"/>
<path d="M136.092 228.428C130.742 229.24 125.8 235.798 129.483 240.737C132.35 244.854 139.325 246.096 143.859 244.462C148.181 242.907 150.356 236.673 147.851 232.628C145.902 229.477 139.667 227.892 136.092 228.428Z" fill="#BBD432"/>
<path d="M136.294 229.153C131.929 229.928 127.392 234.696 129.488 239.314C131.479 243.705 137.631 244.949 141.912 244.218C146.552 243.431 149.197 238.554 147.756 234.14C146.428 230.059 140.03 228.658 136.294 229.153C135.354 229.273 134.947 227.835 135.897 227.712C140.396 227.114 147.249 228.689 149.062 233.406C151.025 238.51 147.95 244.35 142.662 245.583C137.435 246.799 130.39 244.914 128.021 239.697C125.613 234.374 130.824 228.597 135.884 227.705C136.846 227.547 137.243 228.988 136.294 229.153Z" fill="#221F1F"/>
<path d="M136.453 192.696C133.148 201.315 131.466 212.405 131.441 221.435C129.386 222.247 126.92 221.837 124.86 222.244C124.465 217.317 126.527 211.564 126.955 206.635C127.379 201.301 127.389 196.37 128.227 191.029C130.694 191.439 133.571 191.865 136.033 191.87L136.453 192.696Z" fill="#986026"/>
<path d="M137.173 192.893C133.748 201.93 132.252 211.794 132.194 221.442C132.195 221.795 131.966 222.05 131.643 222.161C129.507 222.91 127.26 222.599 125.062 222.969C124.561 223.054 124.149 222.761 124.114 222.247C123.779 217.112 125.586 212.177 126.161 207.122C126.785 201.701 126.692 196.242 127.504 190.844C127.566 190.41 128.061 190.263 128.42 190.324C130.942 190.741 133.47 191.102 136.025 191.136C136.991 191.147 136.987 192.645 136.021 192.634C133.325 192.596 130.662 192.208 128.017 191.771C128.323 191.602 128.626 191.422 128.932 191.252C128.109 196.685 128.209 202.174 127.584 207.628C127.02 212.53 125.272 217.288 125.586 222.269C125.272 222.024 124.962 221.789 124.638 221.547C126.826 221.179 129.092 221.484 131.219 220.738C131.039 220.98 130.847 221.215 130.668 221.456C130.725 211.69 132.23 201.664 135.7 192.519C136.069 191.605 137.514 191.998 137.173 192.893Z" fill="#221F1F"/>
<path d="M78.9114 194.614C81.367 197.08 82.1795 203.249 82.9882 206.533C85.029 212.695 86.6546 218.865 88.6954 225.027C90.7494 225.027 93.2141 225.043 95.2682 225.043C92.0065 213.947 88.3423 202.438 85.9062 190.922C83.4364 191.742 80.9691 192.144 78.9144 192.956C79.327 193.366 79.3192 194.191 79.7317 194.602L78.9114 194.614Z" fill="#986026"/>
<path d="M79.4456 194.096C82.2671 197.114 82.7161 201.886 83.5733 205.734C84.2513 208.776 85.4283 211.766 86.315 214.75C87.3185 218.119 88.3247 221.498 89.4177 224.842C89.1757 224.663 88.941 224.471 88.699 224.292C90.8933 224.297 93.0875 224.301 95.2718 224.309C95.0266 224.622 94.7913 224.933 94.5489 225.256C91.217 213.944 87.6538 202.685 85.1869 191.135C85.4913 191.307 85.7956 191.48 86.1027 191.663C83.7909 192.396 81.3898 192.844 79.1109 193.697C79.2574 193.336 79.4111 192.962 79.5576 192.601C79.9126 193.112 80.02 193.735 80.3749 194.246C80.9241 195.036 79.6308 195.777 79.0843 194.998C78.7294 194.486 78.622 193.863 78.267 193.352C77.9666 192.922 78.2972 192.413 78.7138 192.256C80.99 191.393 83.3938 190.955 85.7056 190.222C86.0779 190.098 86.5444 190.354 86.6214 190.75C89.0855 202.29 92.6587 213.547 95.9833 224.871C96.1219 225.336 95.7406 225.815 95.2603 225.819C93.066 225.815 90.8718 225.81 88.6875 225.803C88.3447 225.801 88.0764 225.565 87.9688 225.252C86.0209 219.311 84.3757 213.264 82.4477 207.317C81.1787 203.411 81.3377 198.321 78.3702 195.162C77.7325 194.44 78.7908 193.389 79.4456 194.096Z" fill="#221F1F"/>
<path d="M58.5552 178.889C67.0812 178.346 75.6071 177.803 84.1413 177.289C93.3474 176.73 102.552 176.202 111.754 175.708C119.018 175.32 126.29 174.962 133.56 174.637C141.085 174.305 148.619 174.004 156.146 173.757C150.927 180.167 145.407 186.296 139.744 192.144L120.018 193.465L108.638 193.897L93.0424 194.486L76.8506 194.501C70.4551 189.849 64.3158 184.614 58.5552 178.889Z" fill="#F68920"/>
<path d="M58.5504 178.141C91.0625 176.054 123.585 174.082 156.141 173.009C156.851 172.984 157.049 173.817 156.665 174.287C153.633 177.998 150.505 181.629 147.289 185.178C145.756 186.872 144.195 188.543 142.631 190.203C141.908 190.959 140.761 192.814 139.647 192.886C135.993 193.134 132.346 193.37 128.691 193.618C122.052 194.058 115.429 194.365 108.78 194.616C102.936 194.837 97.0807 195.21 91.2287 195.209C86.9081 195.213 82.5875 195.217 78.2569 195.224C77.7965 195.223 77.3488 195.229 76.8884 195.227C76.5131 195.224 76.3208 195.031 76.0127 194.806C74.9942 194.06 73.9829 193.302 72.9915 192.538C69.4771 189.84 66.0862 186.968 62.8054 183.992C61.1763 182.506 59.576 180.969 58.0155 179.421C57.3264 178.745 58.3946 177.692 59.0738 178.371C62.3281 181.6 65.7141 184.687 69.2346 187.64C70.9884 189.113 72.791 190.53 74.608 191.921C75.0412 192.251 75.4716 192.571 75.9021 192.89C75.9555 192.929 76.9281 193.741 76.8331 193.746C76.9733 193.75 77.1207 193.741 77.2609 193.745C81.3989 193.738 85.5395 193.741 89.6775 193.733C95.9771 193.729 102.269 193.385 108.558 193.148C114.604 192.925 120.633 192.674 126.673 192.271C130.812 191.996 134.941 191.724 139.077 191.439C139.949 191.381 139.412 191.411 140.003 190.799C141.717 189.023 143.413 187.219 145.083 185.401C148.327 181.877 151.47 178.263 154.52 174.578C154.89 174.134 155.249 173.693 155.616 173.239C155.787 173.663 155.97 174.093 156.14 174.517C123.583 175.59 91.0537 177.574 58.5488 179.649C57.5893 179.699 57.5936 178.201 58.5504 178.141Z" fill="#221F1F"/>
<path d="M149.524 67.6479C149.556 54.4893 146.12 40.9393 137.069 30.6478C141.729 32.4958 146.299 34.6786 150.735 37.1872C166.902 45.9343 181.19 59.0376 187.368 76.4824C194.165 95.1675 189.758 115.081 182.242 132.483C175.589 147.349 166.454 161.092 156.145 173.759C148.618 174.005 141.084 174.307 133.559 174.638C150.748 143.077 149.938 103.071 149.524 67.6479Z" fill="#FBF06D"/>
<path d="M148.77 67.6388C148.757 54.5138 145.279 41.2323 136.525 31.1687C136.085 30.6592 136.503 29.6139 137.251 29.921C152.05 35.8379 166.293 44.5489 176.697 56.7556C181.52 62.4181 185.362 68.8643 187.927 75.844C191.019 84.2287 191.95 93.1557 191.228 102.025C189.827 119.142 182.636 135.397 173.902 149.971C169.527 157.27 164.606 164.218 159.359 170.913C158.694 171.759 158.016 172.598 157.351 173.445C156.687 174.258 156.577 174.481 155.55 174.518C153.175 174.596 150.793 174.686 148.42 174.773C143.466 174.962 138.515 175.162 133.559 175.384C132.966 175.408 132.663 174.733 132.917 174.256C149.066 144.436 149.202 108.99 148.873 75.9706C148.845 73.1882 148.809 70.4185 148.77 67.6388C148.762 66.6788 150.251 66.6854 150.269 67.6427C150.653 100.475 151.617 135.137 138.551 165.979C137.248 169.053 135.789 172.064 134.203 175.003C133.991 174.623 133.772 174.256 133.56 173.876C138.516 173.654 143.468 173.454 148.422 173.265C150.804 173.175 153.176 173.088 155.551 173.01C156.241 172.991 157.242 171.187 157.64 170.692C158.498 169.611 159.335 168.536 160.167 167.44C165.627 160.312 170.627 152.84 175.052 145.024C183.887 129.418 190.636 111.639 189.925 93.4571C189.354 78.8077 182.853 65.3116 172.891 54.747C163.05 44.3095 150.103 36.6525 136.855 31.3558C137.092 30.9375 137.343 30.5264 137.58 30.1081C146.602 40.4828 150.246 54.0928 150.256 67.6355C150.267 68.6055 148.768 68.6016 148.77 67.6388Z" fill="#221F1F"/>
<path d="M58.3686 36.6308C58.3682 35.7756 58.471 34.9455 58.6317 34.1314C71.1709 27.1901 84.6723 23.7789 98.2647 23.4536C112.184 72.751 118.788 124.888 111.75 175.696C102.544 176.181 93.3426 176.718 84.1365 177.277C77.4199 162.301 72.6004 146.406 67.9784 130.297C59.4307 99.4787 55.1937 68.6592 58.3686 36.6308Z" fill="#FBF06D"/>
<path d="M57.6157 36.6234C57.6355 35.8802 57.7133 35.1532 57.8209 34.4179C57.9614 33.4919 58.4342 33.3829 59.2344 32.9486C61.0129 31.988 62.8431 31.0986 64.6897 30.2689C68.2095 28.6787 71.843 27.3458 75.5395 26.2415C82.9125 24.0382 90.5941 22.9153 98.2725 22.7126C98.6026 22.7071 98.9035 22.9449 98.9911 23.2629C109.229 59.5914 115.486 97.1985 115.349 135.007C115.3 148.684 114.349 162.352 112.481 175.91C112.434 176.244 112.061 176.443 111.756 176.463C102.553 176.957 93.3388 177.487 84.1427 178.044C83.9004 178.057 83.5988 177.895 83.496 177.677C75.8714 160.61 70.3236 142.5 65.6324 124.431C60.9374 106.311 57.7763 87.778 56.8451 69.0689C56.2994 58.2397 56.564 47.401 57.6157 36.6234C57.7056 35.6685 59.2043 35.6724 59.1144 36.6272C57.2668 55.5783 57.9818 74.6677 60.7819 93.4817C63.5781 112.243 68.5233 130.573 74.2401 148.637C77.2781 158.223 80.6741 167.711 84.7811 176.906C84.5655 176.784 84.3499 176.661 84.1344 176.539C93.3404 175.979 102.545 175.452 111.747 174.958C111.509 175.141 111.271 175.324 111.023 175.51C116.219 137.697 113.862 99.1856 106.639 61.8018C104.159 48.9613 101.082 36.2428 97.5396 23.663C97.7815 23.8422 98.0162 24.0341 98.2582 24.2133C91.2273 24.3978 84.2637 25.4085 77.4749 27.2475C74.1713 28.1474 70.9407 29.273 67.7666 30.5648C65.9577 31.2986 64.1933 32.1163 62.4526 32.981C61.6243 33.391 60.8014 33.821 59.9884 34.2481C59.0102 34.7743 59.1381 35.6264 59.1172 36.6372C59.0798 37.5883 57.5938 37.5916 57.6157 36.6234Z" fill="#221F1F"/>
<path d="M54.8351 36.3449C56.0849 35.5621 57.3611 34.8361 58.6328 34.1328C58.4721 34.9469 58.3693 35.777 58.3696 36.6322C55.2075 68.6678 59.4445 99.4873 67.9949 130.315C72.6069 146.427 77.4265 162.322 84.153 177.296C75.6288 177.806 67.0929 178.352 58.567 178.895C40.2369 160.674 25.7209 137.466 19.1544 112.827C10.5041 80.4332 27.3881 53.0827 54.8351 36.3449Z" fill="#BBD432"/>
<path d="M54.4617 35.6994C55.7043 34.9293 56.9777 34.1934 58.2594 33.4874C58.8718 33.1475 59.4728 33.6981 59.3577 34.3286C58.951 36.5788 58.8973 38.9456 58.7141 41.2305C58.5178 43.7008 58.3794 46.1872 58.2708 48.6653C58.0657 53.3938 58.0334 58.1281 58.1286 62.8593C58.3201 72.3642 59.1491 81.8538 60.4718 91.2714C63.1063 110.067 67.9465 128.404 73.5739 146.492C76.7848 156.822 80.3834 167.045 84.7942 176.916C85.0244 177.44 84.7499 177.997 84.1404 178.037C79.1838 178.334 74.2199 178.644 69.2688 178.961C66.8931 179.113 64.5048 179.258 62.1291 179.41C60.9399 179.482 59.7535 179.563 58.5543 179.637C57.8498 179.681 57.0471 178.438 56.6164 178C50.7938 172.09 45.4602 165.702 40.6087 158.967C30.9085 145.508 23.3189 130.431 18.8175 114.448C14.9258 100.639 15.2778 86.12 20.7721 72.7921C26.0894 59.9087 35.5999 49.2371 46.6686 40.9584C49.1656 39.0728 51.7787 37.3369 54.4617 35.6994C55.2853 35.1944 56.0366 36.4841 55.213 36.9891C42.8762 44.5481 31.9515 54.6687 24.9608 67.4575C18.0132 80.1702 16.0688 94.8503 18.9926 108.99C22.3569 125.233 30.0907 140.795 39.2958 154.476C44.045 161.538 49.42 168.192 55.2397 174.403C55.9226 175.134 56.6254 175.86 57.3255 176.576C58.1154 177.384 58.546 178.131 59.7451 178.058C62.3206 177.893 64.8961 177.728 67.4816 177.561C72.4454 177.251 77.3993 176.944 82.3532 176.637C82.9528 176.6 83.5424 176.566 84.142 176.529C83.9231 176.899 83.707 177.28 83.4882 177.65C75.8636 160.583 70.3158 142.473 65.6246 124.404C60.9296 106.284 57.7685 87.7508 56.8373 69.0418C56.543 63.2001 56.501 57.3424 56.6644 51.4922C56.7543 48.4419 56.9094 45.395 57.1296 42.3515C57.3233 39.5612 57.4019 36.6637 57.9168 33.9132C58.2838 34.1969 58.6508 34.4806 59.0151 34.7544C57.7362 35.4704 56.47 36.1936 55.2174 36.9664C54.3794 37.4968 53.6381 36.2044 54.4617 35.6994Z" fill="#221F1F"/>
<path d="M98.2624 23.4526C111.367 23.144 124.563 25.6864 137.065 30.6435C146.117 40.935 149.552 54.4851 149.52 67.6437C149.937 103.076 150.745 143.073 133.556 174.634C126.286 174.959 119.014 175.317 111.75 175.705C118.788 124.897 112.174 72.7627 98.2624 23.4526Z" fill="#BBD432"/>
<path d="M98.2658 22.7153C107.456 22.5237 116.593 23.6936 125.472 26.025C127.653 26.6 129.813 27.2556 131.946 27.9718C133.018 28.3286 134.088 28.7178 135.148 29.1099C136.125 29.4714 137.224 29.6925 137.926 30.4932C140.555 33.5105 142.719 36.9015 144.489 40.4871C147.992 47.5716 149.681 55.4451 150.156 63.3003C150.653 71.4701 150.443 79.7495 150.43 87.9315C150.401 104.671 149.731 121.491 146.727 137.992C145.244 146.119 143.134 154.142 140.215 161.874C138.806 165.608 137.182 169.263 135.363 172.833C134.999 173.532 134.652 174.601 134.1 175.159C133.613 175.646 132.42 175.43 131.808 175.459C129.251 175.576 126.694 175.693 124.14 175.819C120.012 176.016 115.889 176.233 111.766 176.45C111.229 176.481 110.986 175.949 111.046 175.505C116.242 137.692 113.886 99.1801 106.663 61.7962C104.182 48.9557 101.105 36.2372 97.5627 23.6574C97.2953 22.7262 98.7397 22.3388 99.0043 23.2601C109.242 59.5885 115.5 97.1957 115.362 135.005C115.313 148.681 114.362 162.35 112.494 175.908C112.256 175.588 112.011 175.282 111.773 174.962C119.037 174.575 126.309 174.217 133.579 173.891C133.367 174.014 133.145 174.139 132.932 174.262C149.082 144.441 149.218 108.995 148.889 75.9761C148.819 69.2389 148.965 62.4739 147.823 55.8075C146.687 49.161 144.389 42.7275 140.857 36.9764C139.944 35.4856 138.922 34.0675 137.841 32.7082C137.237 31.9551 136.752 31.3192 135.828 30.9539C134.941 30.6102 134.06 30.2863 133.172 29.9752C129.458 28.647 125.659 27.5558 121.827 26.6555C114.121 24.8559 106.196 24.0469 98.2813 24.2077C97.291 24.2241 97.308 22.7334 98.2658 22.7153Z" fill="#221F1F"/>
<path d="M137.437 218.963C134.566 218.482 131.696 219.904 128.82 220.376C124.031 221.322 119.247 221.315 114.471 221.295C108.251 221.277 102.51 220.786 96.3023 220.775C91.5185 220.768 84.8251 218.839 80.5147 220.744C80.0161 227.435 81.4293 235.085 81.894 241.777C82.3557 246.557 81.3811 255.635 85.1965 258.999C89.0161 260.437 93.8035 259.021 97.6328 258.554C101.462 258.087 105.767 258.568 109.59 258.583C119.156 258.127 128.729 257.189 138.295 256.733C138.79 249.562 138.334 242.397 138.345 235.22C138.358 230.919 139.334 222.311 136.478 219.441L137.437 218.963Z" fill="#F68920"/>
<path d="M137.436 219.7C135.05 219.385 132.819 220.182 130.542 220.767C128.115 221.393 125.579 221.664 123.084 221.849C117.96 222.235 112.757 222.066 107.631 221.864C102.85 221.675 97.9916 221.784 93.232 221.321C89.1645 220.924 84.6403 219.841 80.7081 221.448C80.8875 221.206 81.0795 220.972 81.2589 220.73C80.749 228.311 82.3906 235.781 82.7453 243.316C82.8775 246.241 82.8171 249.166 83.1592 252.076C83.3283 253.505 83.6431 254.957 84.2127 256.286C84.4829 256.917 84.8471 257.501 85.2898 258.021C85.8713 258.694 87.1557 258.736 87.9709 258.821C91.5544 259.17 95.134 257.991 98.6841 257.675C102.893 257.306 107.122 257.937 111.34 257.715C120.325 257.248 129.289 256.392 138.283 255.955C138.031 256.206 137.779 256.457 137.535 256.696C138.022 249.227 137.442 241.765 137.606 234.289C137.662 231.772 137.817 229.271 137.735 226.759C137.669 224.543 137.538 221.661 135.938 219.931C135.284 219.224 136.342 218.174 136.997 218.881C138.486 220.48 138.867 222.716 139.102 224.811C139.407 227.624 139.232 230.484 139.132 233.302C138.852 241.098 139.546 248.893 139.034 256.7C139.011 257.123 138.708 257.42 138.286 257.44C128.902 257.899 119.551 258.787 110.17 259.256C105.75 259.48 101.346 258.716 96.9229 259.358C93.2503 259.889 89.5823 260.825 85.889 259.962C83.2952 259.362 82.3761 256.066 81.9162 253.776C81.3198 250.797 81.3563 247.708 81.2817 244.682C81.0931 236.662 79.2207 228.743 79.7547 220.706C79.7809 220.335 79.9785 220.121 80.3055 219.988C84.0642 218.449 88.3969 219.265 92.2954 219.709C97.1773 220.266 102.155 220.123 107.059 220.333C112.198 220.541 117.364 220.657 122.496 220.376C125.235 220.219 127.981 219.858 130.639 219.179C132.887 218.602 135.074 217.882 137.428 218.195C138.377 218.34 138.393 219.832 137.436 219.7Z" fill="#221F1F"/>
<path d="M127.156 221.125C128.127 226.705 129.155 232.259 129.827 237.879C130.561 243.995 131.009 250.318 129.931 256.421C129.763 257.365 128.325 256.96 128.493 256.015C129.557 250.056 129.031 243.84 128.338 237.873C127.692 232.385 126.667 226.958 125.712 221.512C125.549 220.574 126.991 220.176 127.156 221.125Z" fill="#221F1F"/>
<path d="M115.19 222.057C117.563 233.537 118.957 245.426 118.951 257.166C118.949 258.129 117.451 258.125 117.453 257.162C117.454 245.562 116.088 233.815 113.739 222.457C113.551 221.504 114.995 221.116 115.19 222.057Z" fill="#221F1F"/>
<path d="M101.291 221.271C101.287 221.101 101.293 220.929 101.289 220.759C101.291 219.796 102.789 219.8 102.787 220.763C102.784 223.468 102.913 226.148 103.165 228.848C103.494 232.253 103.421 235.79 104.086 239.135C105.26 245.066 107.404 251.018 106.994 257.139C106.927 258.098 105.441 258.102 105.495 257.135C105.911 250.841 103.611 244.708 102.452 238.602C102.177 237.138 102.198 235.7 102.12 234.214C102.032 232.421 101.837 230.625 101.666 228.844C101.405 226.147 101.286 223.464 101.289 220.759C101.291 219.796 102.789 219.8 102.787 220.763C102.791 220.932 102.786 221.105 102.79 221.275C102.775 222.231 101.289 222.234 101.291 221.271Z" fill="#221F1F"/>
<path d="M91.7874 222.2C91.7963 229.606 92.959 236.93 93.2825 244.314C93.392 246.807 93.3115 249.309 93.401 251.807C93.4784 253.796 93.3724 256.904 94.8263 258.492C95.4711 259.202 94.4156 260.262 93.768 259.543C92.3604 258.006 92.196 255.625 92.0137 253.644C91.7669 250.847 91.8575 248.031 91.8106 245.222C91.6798 237.528 90.3046 229.9 90.2887 222.196C90.2908 221.233 91.7895 221.237 91.7874 222.2Z" fill="#221F1F"/>
<path d="M115.48 195.93C115.478 195.107 115.875 200.856 116.285 201.684C111.767 201.668 108.066 202.485 103.952 203.704C103.132 201.236 103.141 198.358 103.153 195.489C106.856 195.495 111.375 195.511 115.068 195.52L115.48 195.93Z" fill="#878787"/>
<path d="M114.735 195.932C114.74 195.835 114.748 195.747 114.765 195.657C114.945 194.912 116 194.974 116.209 195.654C116.764 197.511 116.254 199.662 117.013 201.484C117.204 201.944 116.728 202.428 116.29 202.431C112.125 202.457 108.131 203.258 104.154 204.429C103.759 204.549 103.355 204.286 103.238 203.901C102.4 201.171 102.405 198.315 102.414 195.479C102.42 195.072 102.754 194.734 103.162 194.739C107.133 194.745 111.106 194.762 115.077 194.769C116.04 194.771 116.036 196.269 115.073 196.267C111.102 196.26 107.129 196.243 103.158 196.237C103.41 195.985 103.661 195.734 103.906 195.496C103.9 198.192 103.88 200.913 104.682 203.514C104.378 203.341 104.074 203.169 103.767 202.986C107.874 201.779 112.002 200.962 116.305 200.931C116.059 201.244 115.824 201.555 115.582 201.878C114.841 200.083 115.285 197.737 114.777 196.049C115.258 196.045 115.741 196.051 116.221 196.047C116.23 196.001 116.231 195.969 116.24 195.924C116.209 196.895 114.71 196.891 114.735 195.932Z" fill="#221F1F"/>
<path d="M108.404 231.654C103.055 232.466 98.1122 239.024 101.795 243.964C104.663 248.081 111.637 249.323 116.172 247.688C120.493 246.134 122.669 239.9 120.163 235.854C118.202 232.696 111.977 231.108 108.404 231.654Z" fill="#BBD432"/>
<path d="M108.606 232.38C104.242 233.155 99.7043 237.923 101.801 242.541C103.792 246.931 109.944 248.176 114.224 247.445C118.864 246.658 121.51 241.78 120.069 237.367C118.728 233.278 112.342 231.884 108.606 232.38C107.666 232.5 107.259 231.062 108.209 230.939C112.709 230.34 119.561 231.915 121.375 236.633C123.338 241.736 120.262 247.577 114.975 248.81C109.747 250.026 102.702 248.14 100.334 242.924C97.9253 237.601 103.137 231.824 108.197 230.932C109.156 230.763 109.553 232.204 108.606 232.38Z" fill="#221F1F"/>
<path d="M77.8278 217C87.0752 217.017 96.1187 214.781 105.574 215.008C113.798 215.233 122.627 215.867 131.057 214.859C135.17 214.452 139.487 213.85 143.592 214.269C143.683 214.714 143.566 216.307 143.366 218.03L143.383 217.972C143.556 219.378 143.119 221.092 142.606 222.452C142.521 222.764 142.424 222.994 142.346 223.101C131.461 221.023 120.758 225.929 110.076 226.105C100.831 226.29 91.3742 225.24 82.1238 225.833C79.6542 226.033 78.223 226.235 77.8192 223.567C77.4028 221.319 77.6142 219.058 77.8278 217Z" fill="#878787"/>
<path d="M77.8225 216.251C83.2963 216.239 88.7275 215.491 94.1574 214.892C99.6496 214.287 105.055 214.219 110.569 214.431C116.08 214.633 121.583 214.806 127.097 214.473C132.601 214.142 138.068 213.02 143.589 213.53C144.038 213.567 144.285 213.841 144.33 214.277C144.477 215.509 144.238 216.815 144.105 218.038C143.615 217.97 143.126 217.902 142.636 217.834C142.641 217.811 142.645 217.789 142.652 217.776C142.829 216.904 144.062 217.184 144.121 217.98C144.262 219.812 143.82 221.859 142.976 223.492C142.816 223.803 142.455 223.892 142.129 223.832C135.385 222.612 128.651 224.03 122.019 225.312C118.941 225.904 115.851 226.456 112.728 226.729C109.345 227.031 105.897 226.902 102.51 226.798C95.5999 226.607 88.6341 226.058 81.7299 226.624C80.1194 226.758 78.4797 226.825 77.5524 225.285C76.9665 224.323 76.9441 222.961 76.8609 221.883C76.7346 220.261 76.9132 218.619 77.0773 217.002C77.1699 216.057 78.6658 216.051 78.576 217.006C78.4277 218.447 78.3192 219.877 78.3337 221.327C78.3426 222.33 78.2825 224.324 79.2493 224.999C79.8727 225.436 81.0352 225.191 81.737 225.136C83.4027 225.008 85.0803 224.963 86.7608 224.927C93.373 224.816 99.9824 225.314 106.591 225.384C112.825 225.452 118.752 224.406 124.862 223.246C130.714 222.125 136.622 221.319 142.545 222.392C142.265 222.501 141.977 222.623 141.697 222.732C142.422 221.325 142.752 219.534 142.632 217.974C143.122 218.042 143.611 218.11 144.101 218.178C144.096 218.201 144.092 218.224 144.084 218.236C143.914 219.053 142.516 218.872 142.616 218.032C142.752 216.818 142.988 215.502 142.842 214.271C143.093 214.522 143.344 214.774 143.582 215.018C138.064 214.518 132.583 215.591 127.09 215.961C121.587 216.333 116.06 216.114 110.562 215.919C105.04 215.72 99.648 215.795 94.1503 216.38C88.715 216.959 83.2992 217.724 77.8154 217.739C76.8549 217.747 76.862 216.259 77.8225 216.251Z" fill="#221F1F"/>
</svg>
