<svg width="167" height="66" viewBox="0 0 167 66" fill="none" xmlns="http://www.w3.org/2000/svg">
<path fill-rule="evenodd" clip-rule="evenodd" d="M66.5689 29.4612C65.9028 26.6023 62.0767 23.6088 58.3999 23.6088C55.9202 23.6088 54.4186 23.8152 52.3394 25.1077C50.4388 26.289 50.4252 26.8779 49.1336 28.3638C48.1869 24.301 48.8178 23.7307 44.1347 23.7307C40.5032 23.7307 37.8228 24.2401 37.9164 27.6323C38.0046 30.8253 38.6039 35.686 38.4041 38.6056C38.4041 42.399 38.2822 45.8828 38.2822 49.5788C38.2822 54.1943 38.6124 55.6752 43.2811 55.6752C46.0919 55.6752 47.6511 55.2038 48.2583 52.9711C49.8315 47.1866 48.0762 35.5576 54.2544 35.5576H54.986C58.9889 35.5576 59.9251 41.0716 60.3343 44.8402C60.7916 49.0518 59.9895 55.3094 64.618 55.3094C68.3736 55.3094 70.1828 55.6926 70.8223 52.0036C71.5557 47.7725 70.8045 35.5575 76.9324 35.5575H77.5421C82.9576 35.5575 83.0424 47.1888 83.9908 52.0306C84.6924 55.6118 86.7846 55.4312 89.8564 55.4312C93.8852 55.4312 93.7581 53.2445 93.7581 50.7981C93.7581 44.8856 92.4744 36.3177 90.7424 32.1112C88.6726 27.0843 84.9381 23.1211 77.9077 23.1211C75.2014 23.1211 72.5842 23.8483 70.8428 24.8347C70.066 25.2747 68.9332 26.1019 68.3946 26.776C67.7731 27.5539 67.0517 28.9055 66.5687 29.4612H66.5689Z" fill="#E31C23"/>
<path fill-rule="evenodd" clip-rule="evenodd" d="M16.9478 32.3858C20.7693 32.3858 23.8974 35.1088 23.8974 38.7259V39.5794C23.8974 45.657 16.1953 48.2659 11.9969 44.0425C7.80416 39.8247 10.8037 32.3858 16.9478 32.3858ZM9.45534e-05 38.604V39.7014C9.45534e-05 51.4617 12.4712 57.9141 20.6763 54.4031C22.7931 53.4975 22.7603 52.8186 24.1413 51.8939C24.1413 55.0727 25.3323 55.6735 28.5306 55.6735C30.8114 55.6735 32.5367 55.1869 32.9349 53.2501C34.6445 44.9364 34.8706 38.6936 34.8706 30.0693C34.8706 28.5135 34.7174 26.0492 33.9342 25.2754C32.5997 23.9569 30.3505 23.8512 28.4086 23.8512C26.0995 23.8512 25.5341 25.0574 25.3605 27.1432C23.9466 26.1073 23.7167 25.0981 21.5015 24.0524C19.392 23.0567 17.5095 22.7539 14.875 22.7539C6.80955 22.7539 0 30.5057 0 38.6042L9.45534e-05 38.604Z" fill="#E11D23"/>
<path fill-rule="evenodd" clip-rule="evenodd" d="M112.172 39.5824V41.777C112.172 45.518 113.712 55.1889 116.805 55.1889C119.554 55.1889 122.909 54.3919 123.341 51.8468C123.755 49.4061 122.779 46.1416 122.779 43.3621C122.779 39.8502 123.045 36.5004 124.902 33.9022C126.053 32.2936 128.568 30.1941 131.192 30.1941H132.777C136.28 30.1941 139.909 34.1816 141.584 36.2625C143.535 38.6873 145.974 44.2156 148.871 44.2156C150.488 44.2156 155.09 42.3664 155.09 40.1919C155.09 38.5117 152.536 33.463 151.776 32.1669C150.189 29.4601 148.973 27.7609 147.057 25.4241C144.089 21.8034 138.378 17.7578 131.802 17.7578C120.03 17.7578 112.172 27.7403 112.172 39.5824Z" fill="#E11D23"/>
<path fill-rule="evenodd" clip-rule="evenodd" d="M122.415 57.6261C119.509 57.6261 117.804 57.59 114.908 57.2071C113.386 57.0058 110.65 56.2848 109.49 56.2848C107.634 56.2848 105.711 57.8969 105.711 59.6987V60.5522C105.711 63.5942 109.364 64.0797 112.12 64.5067C125.924 66.6453 140.787 64.1024 150.823 57.6261C154.815 55.0502 157.604 52.6261 160.524 48.9164C162.292 46.6709 166.43 39.5385 166.43 35.9233C166.43 33.9427 164.639 32.2656 162.65 32.2656C158.555 32.2656 159.383 36.4165 156.029 41.983C154.04 45.2844 151.143 48.2587 147.971 50.3845C141.738 54.562 132.767 57.626 122.415 57.626V57.6261Z" fill="#F7AF28"/>
<path fill-rule="evenodd" clip-rule="evenodd" d="M133.75 13.3662C133.75 15.1592 134.865 15.0958 137.11 15.7369C138.532 16.143 139.73 16.5289 141.014 17.0754C142.749 17.8136 145.158 19.5011 146.193 19.7076C149.344 20.3365 146.674 15.6718 146.674 12.7567C146.674 10.6169 147.614 9.38293 149.357 8.97692C148.676 10.2629 148.625 11.4296 148.625 12.8786C148.625 14.3857 149.887 16.1706 151.429 16.1706C152.221 16.1706 152.656 14.3734 153.02 13.7378C153.97 12.0764 155.28 10.5351 156.639 9.18787C156.881 8.94836 159.111 7.51427 159.111 7.51399C159.111 6.80805 157.508 4.30711 157.07 3.82451C153.879 0.311475 148.999 -0.864297 144.192 0.642884C141.279 1.55618 139.111 3.34097 137.393 5.42625C136.453 6.56685 133.75 11.572 133.75 13.3664L133.75 13.3662Z" fill="#F7AF28"/>
<path fill-rule="evenodd" clip-rule="evenodd" d="M96.1954 40.0666C96.1954 43.9234 96.2578 46.9183 96.8254 50.6537C97.5343 55.3195 99.6001 55.1854 103.511 55.1854C109.402 55.1854 106.255 44.5358 106.872 39.6475L107.413 33.6046C107.413 30.034 102.228 27.9961 100.829 27.9961H100.097C96.9905 27.9961 96.1953 36.3417 96.1953 40.0666H96.1954Z" fill="#E11D23"/>
<path fill-rule="evenodd" clip-rule="evenodd" d="M100.219 22.2657C100.219 25.0169 102.824 25.2566 105.303 25.5945C108.134 25.9803 112.411 30.0393 112.411 26.5331V25.5577C112.411 18.9154 100.219 10.028 100.219 22.2656L100.219 22.2657Z" fill="#F9AF28"/>
</svg>
