<svg width="61" height="60" viewBox="0 0 61 60" fill="none" xmlns="http://www.w3.org/2000/svg">
<path d="M59.8892 12.96C59.8892 11.2289 59.2358 9.60161 58.0494 8.37862L51.7628 1.89541C51.1806 1.29235 50.4888 0.81441 49.7273 0.489114C48.9658 0.163819 48.1496 -0.00240198 47.3258 2.62244e-05H37.9439C36.6342 2.62244e-05 35.3767 0.413695 34.3088 1.19707L29.1298 4.9936C28.9067 5.15703 28.7493 5.39956 28.6877 5.67512C28.6261 5.95067 28.6644 6.24005 28.7954 6.48828L36.4259 20.9429C35.9733 21.5443 35.6728 22.253 35.5516 23.0048H31.9833C31.6875 23.0048 31.4038 23.1263 31.1947 23.3427C30.9855 23.5591 30.868 23.8526 30.868 24.1586C30.868 24.4646 30.9855 24.758 31.1947 24.9744C31.4038 25.1908 31.6875 25.3124 31.9833 25.3124H35.7529C36.0642 26.2053 36.6339 26.9772 37.3844 27.5232C38.135 28.0692 39.0299 28.3627 39.9475 28.3637C40.865 28.3627 41.76 28.0692 42.5105 27.5232C43.2611 26.9772 43.8308 26.2053 44.142 25.3124H57.4558L56.7501 29.6797C56.082 33.8099 52.6503 36.8072 48.5895 36.8072H46.9565L26.8406 25.3116H27.5226C27.8185 25.3116 28.1021 25.1901 28.3113 24.9737C28.5205 24.7573 28.638 24.4639 28.638 24.1578C28.638 23.8518 28.5205 23.5584 28.3113 23.342C28.1021 23.1256 27.8185 23.004 27.5226 23.004H22.8028L10.9792 16.2477C10.4699 15.8955 9.87103 15.7077 9.25845 15.7079H5.23666C3.39192 15.7079 1.89062 17.2581 1.89062 19.1621C1.89247 20.079 2.24579 20.9576 2.87307 21.6053C3.50036 22.253 4.35038 22.6168 5.23666 22.617H10.2561C10.463 22.6171 10.6659 22.5575 10.842 22.445C11.018 22.3324 11.1604 22.1714 11.253 21.98L12.0402 20.357C12.1537 20.1228 12.2346 19.8799 12.2903 19.6327L18.1903 23.004H14.1601C13.9979 23.0038 13.8377 23.0402 13.6905 23.1106C13.5433 23.1811 13.4128 23.284 13.308 23.412C13.2033 23.5401 13.1268 23.6903 13.084 23.8521C13.0412 24.0139 13.033 24.1834 13.0601 24.3488L13.9832 30.0609C14.7634 34.8873 18.517 38.4878 23.1268 39.0348C22.9449 39.1638 22.8286 39.2481 22.7889 39.2777C22.0321 39.8864 21.4116 40.6573 20.9702 41.5376C20.5287 42.4179 20.2767 43.3866 20.2315 44.3772C17.2289 45.5007 15.0741 48.4641 15.0741 51.945C15.0741 56.3865 18.5769 60 22.8815 60C25.9872 60 28.6672 58.1147 29.924 55.3992H45.0407C46.2975 58.114 48.9775 59.9986 52.0825 59.9986C56.3878 59.9986 59.8899 56.3851 59.8899 51.9436C59.8899 48.3957 57.6523 45.3818 54.5584 44.3109C54.2958 42.2649 53.1435 40.4084 51.3127 39.2978L50.6307 38.9079C52.7246 38.4883 54.6442 37.4158 56.1316 35.8346C57.6191 34.2533 58.6031 32.2391 58.9515 30.0624L59.8753 24.3503C59.893 24.2263 59.8911 24.1003 59.8697 23.977C59.883 23.9071 59.8906 23.835 59.8906 23.7608V12.96H59.8892ZM10.0457 19.3221L9.56706 20.3087H5.23596C4.94113 20.3091 4.65817 20.1885 4.4491 19.9735C4.24003 19.7584 4.12191 19.4664 4.12062 19.1614C4.12062 18.5294 4.62151 18.0148 5.23596 18.0148H9.25775C9.70222 18.0148 9.93072 18.3168 10.0074 18.4458C10.0847 18.5748 10.2421 18.9171 10.0457 19.3221ZM41.5867 25.3116C41.3781 25.546 41.1248 25.7331 40.8428 25.8611C40.5608 25.989 40.2561 26.0551 39.9482 26.0551C39.6402 26.0551 39.3356 25.989 39.0536 25.8611C38.7715 25.7331 38.5182 25.546 38.3097 25.3116C38.0365 25.0072 37.8487 24.6315 37.7664 24.2249C37.6842 23.8183 37.7106 23.3962 37.8429 23.004C37.9589 22.663 38.1507 22.3548 38.4028 22.1045C38.655 21.8541 38.9605 21.6685 39.2947 21.5627L39.3073 21.5598C39.583 21.4744 39.872 21.4448 40.1586 21.4726C40.6674 21.5241 41.1443 21.7531 41.5108 22.1219C41.7393 22.3533 41.9183 22.6358 42.0333 22.9493L42.0528 23.004C42.1197 23.2008 42.1608 23.4098 42.1726 23.6267C42.1747 23.6707 42.1789 23.7139 42.1789 23.7586C42.1789 23.8753 42.1677 23.9892 42.151 24.1009L42.1426 24.1578C42.0721 24.5692 41.8938 24.9525 41.6271 25.2662L41.5867 25.3116ZM47.3258 2.30691C47.4609 2.30691 47.5947 2.31412 47.7284 2.32853L40.3515 19.1751C40.2175 19.1619 40.0829 19.155 39.9482 19.1542C39.914 19.1542 39.8806 19.1585 39.8465 19.1592L37.5782 2.32565C37.6997 2.31362 37.8218 2.30737 37.9439 2.30691H47.3258ZM50.1876 3.52918L56.4742 10.0131C56.6582 10.2028 56.8241 10.4103 56.9695 10.6329L42.9215 20.3347C42.7759 20.1978 42.6216 20.0712 42.4596 19.9556L49.8031 3.18614C49.9361 3.2928 50.0664 3.40523 50.1876 3.52918ZM57.6585 12.96V22.6271L44.3294 22.9017C44.289 22.6816 44.2324 22.465 44.1602 22.2538L57.6571 12.9326L57.6585 12.96ZM35.4436 3.19263L37.4472 18.0609L31.2295 6.28217L35.4436 3.19263ZM31.2686 36.8064C33.548 35.6844 35.971 34.7835 37.8805 34.7835C38.1027 34.7835 38.3083 34.7143 38.4817 34.599L42.3447 36.8064H31.2686ZM35.3586 32.8146C32.3609 33.5389 29.0212 35.301 26.5341 36.8064H24.3438C20.2823 36.8064 16.8506 33.8092 16.1825 29.679L15.4768 25.3109H22.2281L35.3586 32.8146ZM52.0818 57.6888C51.22 57.6883 50.37 57.4812 49.5987 57.0835C48.8274 56.6859 48.1557 56.1086 47.6365 55.397C47.1334 54.7169 46.785 53.9281 46.6173 53.0894C46.4681 52.3331 46.4679 51.5534 46.6166 50.797C46.7836 49.9583 47.1315 49.1695 47.6344 48.4893C48.1535 47.7768 48.8255 47.1985 49.5974 46.8002C50.3692 46.4019 51.2199 46.1944 52.0825 46.194C52.1494 46.194 52.2135 46.2019 52.2797 46.2041C52.2727 46.2351 52.2685 46.2668 52.2616 46.2978L51.7467 48.4886L51.475 49.6424L50.9985 51.6683C50.9407 51.961 50.9949 52.2654 51.1496 52.5177C51.3043 52.77 51.5475 52.9504 51.8281 53.021C52.1087 53.0917 52.4049 53.047 52.6543 52.8965C52.9038 52.746 53.0871 52.5013 53.1658 52.2138L53.1979 52.0798L54.4289 46.8433C54.4372 46.8102 54.4414 46.777 54.4484 46.7446C56.3419 47.6642 57.6585 49.6446 57.6585 51.9414C57.6585 55.1102 55.1569 57.6888 52.0818 57.6888ZM30.5998 53.0894C30.652 52.714 30.6882 52.3334 30.6882 51.9428C30.6882 51.5522 30.652 51.1717 30.5998 50.7962H44.3622C44.3099 51.171 44.2737 51.5515 44.2737 51.9407C44.2737 52.3313 44.3099 52.7125 44.3629 53.0887L30.5998 53.0894ZM27.3276 55.397C26.8083 56.109 26.1365 56.6867 25.3649 57.0846C24.5933 57.4825 23.743 57.6898 22.8808 57.6902C19.8058 57.6902 17.3041 55.1116 17.3041 51.9428C17.3041 49.6468 18.6201 47.6671 20.5115 46.7475L21.7655 52.0812L21.7968 52.216C21.8559 52.467 21.9947 52.6903 22.191 52.8501C22.3873 53.0099 22.6297 53.097 22.8794 53.0974L22.8808 53.0966C23.0498 53.0967 23.2165 53.0571 23.3685 52.9807C23.5205 52.9043 23.6537 52.7932 23.758 52.6557C23.8624 52.5183 23.9351 52.3581 23.9708 52.1873C24.0066 52.0165 24.0043 51.8395 23.9641 51.6697L23.4876 49.6417L23.2166 48.4879L22.6802 46.2055C22.7471 46.2026 22.8126 46.1947 22.8808 46.1947C23.743 46.1951 24.5933 46.4024 25.3649 46.8003C26.1365 47.1982 26.8083 47.7759 27.3276 48.4879C27.8054 49.1349 28.1435 49.8804 28.3191 50.6741C28.4946 51.4677 28.5036 52.2911 28.3454 53.0887C28.1778 53.9274 27.8299 54.7163 27.3276 55.397ZM52.1947 43.8921C52.1564 43.8914 52.1201 43.8864 52.0818 43.8864C48.9754 43.8864 46.2947 45.7724 45.0379 48.4893H29.9233C28.6666 45.7738 25.9865 43.8885 22.8808 43.8885C22.7596 43.8885 22.6412 43.9015 22.5207 43.9073C22.7011 42.8089 23.27 41.8191 24.1167 41.1305C25.1051 40.4238 26.116 39.7515 27.1478 39.1148H46.3825L50.2078 41.3006C51.1617 41.8751 51.8712 42.8005 52.1947 43.8921Z" fill="#F7AF28"/>
</svg>
