<svg width="60" height="60" viewBox="0 0 60 60" fill="none" xmlns="http://www.w3.org/2000/svg">
<path d="M8.5 44C8.5 42.0109 9.29018 40.1032 10.6967 38.6967C12.1032 37.2902 14.0109 36.5 16 36.5H43.5C45.4891 36.5 47.3968 37.2902 48.8033 38.6967C50.2098 40.1032 51 42.0109 51 44M18.5 36.5V21.5H39.75C40.0815 21.5 40.3995 21.6317 40.6339 21.8661C40.8683 22.1005 41 22.4185 41 22.75V36.5M41 24H57.25C57.5815 24 57.8995 24.1317 58.1339 24.3661C58.3683 24.6005 58.5 24.9185 58.5 25.25V27.75C58.5 28.0815 58.3683 28.3995 58.1339 28.6339C57.8995 28.8683 57.5815 29 57.25 29H41M49.75 56.5H9.75C8.0924 56.5 6.50269 55.8415 5.33058 54.6694C4.15848 53.4973 3.5 51.9076 3.5 50.25C3.5 48.5924 4.15848 47.0027 5.33058 45.8306C6.50269 44.6585 8.0924 44 9.75 44H49.75C51.4076 44 52.9973 44.6585 54.1694 45.8306C55.3415 47.0027 56 48.5924 56 50.25C56 51.9076 55.3415 53.4973 54.1694 54.6694C52.9973 55.8415 51.4076 56.5 49.75 56.5Z" stroke="#F7AF28" stroke-width="2" stroke-miterlimit="10" stroke-linecap="round" stroke-linejoin="round"/>
<path d="M14.75 51.5C15.4404 51.5 16 50.9404 16 50.25C16 49.5596 15.4404 49 14.75 49C14.0596 49 13.5 49.5596 13.5 50.25C13.5 50.9404 14.0596 51.5 14.75 51.5Z" stroke="#F7AF28" stroke-width="2" stroke-miterlimit="10"/>
<path d="M44.75 51.5C45.4404 51.5 46 50.9404 46 50.25C46 49.5596 45.4404 49 44.75 49C44.0596 49 43.5 49.5596 43.5 50.25C43.5 50.9404 44.0596 51.5 44.75 51.5Z" stroke="#F7AF28" stroke-width="2" stroke-miterlimit="10"/>
<path d="M24.75 51.5C25.4404 51.5 26 50.9404 26 50.25C26 49.5596 25.4404 49 24.75 49C24.0596 49 23.5 49.5596 23.5 50.25C23.5 50.9404 24.0596 51.5 24.75 51.5Z" stroke="#F7AF28" stroke-width="2" stroke-miterlimit="10"/>
<path d="M34.75 51.5C35.4404 51.5 36 50.9404 36 50.25C36 49.5596 35.4404 49 34.75 49C34.0596 49 33.5 49.5596 33.5 50.25C33.5 50.9404 34.0596 51.5 34.75 51.5Z" stroke="#F7AF28" stroke-width="2" stroke-miterlimit="10"/>
<path d="M18.5 21.5L1 4V8.6975C1 12.0929 2.34883 15.3493 4.74977 17.7502C7.1507 20.1512 10.4071 21.5 13.8025 21.5H18.5Z" stroke="#F7AF28" stroke-width="2" stroke-miterlimit="10" stroke-linecap="round" stroke-linejoin="round"/>
</svg>
