<svg width="1920" height="526" viewBox="0 0 1920 526" fill="none" xmlns="http://www.w3.org/2000/svg">
<path d="M487.02 472.826C239.951 444.43 43.3947 478.407 -24 498.945V0C27.7591 19.8238 110.115 35.9418 144.824 41.5229C330.024 80.099 611.195 50.8994 728.63 31.4776C985.808 -9.24161 1232.41 26.5663 1323.56 49.5601C1411.3 71.5271 1549.5 87.2879 1607.63 92.4224C1722.06 109.032 1863.56 70.7681 1920 49.5601V435.321C1866.22 430.499 1702.48 463.673 1627.34 480.863C1446.59 517.295 1302 525.064 1241.67 525.064C1105 525.064 795.857 508.321 487.02 472.826Z" fill="#F7AF28"/>
</svg>
